<svg
        enable-background="new 0 0 60 60" id="Layer_1"
        version="1.1"
        viewBox="0 0 60 60"
        xml:space="preserve"
        xmlns="http://www.w3.org/2000/svg" xmlns:xlink="http://www.w3.org/1999/xlink">
    <g>
        <path
                d="M30,0C13.5,0,0,13.5,0,30s13.5,30,30,30s30-13.5,30-30S46.5,0,30,0z"
                fill="#B3B3B3"/>
        <path
                d="M17.2,16c-2.9,0-5.3,2.4-5.3,5.3s2.4,5.3,5.3,5.3s5.3-2.4,5.3-5.3S20.2,16,17.2,16z"
                fill="#808080"/>
        <g>
            <path
                    d="M23,19c-0.4,0-0.8-0.2-0.9-0.6c-0.8-2-2.7-3.3-4.9-3.3c-1.7,0-3.3,0.8-4.3,2.3c-0.3,0.5-0.9,0.6-1.4,0.2     c-0.5-0.3-0.6-0.9-0.2-1.4c1.4-1.9,3.6-3.1,6-3.1c3,0,5.6,1.8,6.7,4.6c0.2,0.5,0,1.1-0.6,1.3C23.3,19,23.2,19,23,19z"
                    fill="#CCCCCC"/>
        </g>
        <path
                d="M37.9,27.6c-1.8,0-3.2,1.4-3.2,3.2s1.4,3.2,3.2,3.2s3.2-1.4,3.2-3.2S39.7,27.6,37.9,27.6z"
                fill="#808080"/>
        <g>
            <path
                    d="M37.9,37.4c-1.9,0-3.6-1.1-4.3-2.9c-0.2-0.5,0-1.1,0.5-1.3c0.5-0.2,1.1,0,1.3,0.5c0.4,1,1.4,1.6,2.5,1.6     c1,0,1.9-0.6,2.4-1.4c0.3-0.5,0.9-0.7,1.3-0.4c0.5,0.3,0.7,0.9,0.4,1.3C41.3,36.5,39.7,37.4,37.9,37.4z"
                    fill="#CCCCCC"/>
        </g>
        <path
                d="M7.9,35.8c-1.8,0-3.2,1.4-3.2,3.2s1.4,3.2,3.2,3.2s3.2-1.4,3.2-3.2S9.7,35.8,7.9,35.8z"
                fill="#808080"/>
        <g>
            <path
                    d="M12.2,42.7c-0.3,0-0.5-0.1-0.7-0.3c-0.4-0.4-0.4-1,0-1.4c0.8-0.8,1.2-1.8,1.2-2.8c0-2.2-1.8-4-4-4     c-1,0-1.9,0.3-2.6,1C5.7,35.5,5,35.4,4.7,35c-0.4-0.4-0.3-1.1,0.1-1.4c1.1-0.9,2.5-1.4,3.9-1.4c3.3,0,6,2.7,6,6     c0,1.6-0.6,3.1-1.8,4.2C12.7,42.6,12.5,42.7,12.2,42.7z"
                    fill="#CCCCCC"/>
        </g>
        <path
                d="M29.7,49.4c-3,0-5.3,1.4-5.3,3.2c0,1.8,2.3,3.2,5.3,3.2c3,0,5.3-1.4,5.3-3.2C35,50.7,32.7,49.4,29.7,49.4z    "

                fill="#808080"/>
        <g>
            <path
                    d="M36.3,51.2c-0.6,0-1-0.4-1-1c0-1.2-2.4-2.6-5.6-2.6c-3.2,0-5.6,1.4-5.6,2.6c0,0.6-0.4,1-1,1s-1-0.4-1-1     c0-2.6,3.4-4.6,7.6-4.6s7.6,2,7.6,4.6C37.3,50.8,36.9,51.2,36.3,51.2z"
                    fill="#CCCCCC"/>
        </g>
        <path
                d="M53.4,19.8c-0.1-1.1-0.6-2.2-1.3-3.3c-1.2-1.8-2.9-3-4.3-3c-0.5,0-0.9,0.1-1.3,0.4c-1.5,1-1.3,3.7,0.4,6.2    c1.2,1.8,2.9,3,4.3,3c0.5,0,0.9-0.1,1.3-0.4C53.2,22.1,53.5,21.1,53.4,19.8z"
                fill="#808080"/>
        <g>
            <path
                    d="M50.3,26.3c-2,0-4.4-1.5-6.2-4.1c-1.7-2.5-2.2-5.2-1.5-7.1c0.2-0.5,0.8-0.8,1.3-0.6     c0.5,0.2,0.8,0.8,0.6,1.3c-0.4,1.1-0.1,3.1,1.3,5.3c1.8,2.7,4.2,3.7,5.3,3c0.5-0.3,1.1-0.2,1.4,0.3c0.3,0.5,0.2,1.1-0.3,1.4     C51.6,26.1,51,26.3,50.3,26.3z"
                    fill="#CCCCCC"/>
        </g>
    </g>
</svg>